<svg width="375" height="249" viewBox="0 0 375 249" fill="none" xmlns="http://www.w3.org/2000/svg">
<g clip-path="url(#clip0_182_787)">
<path fill-rule="evenodd" clip-rule="evenodd" d="M-38.1329 129.141L-40.66 112.995L6.70827 94.5856L93.0294 93.0432L92.0833 69.3595L129.293 60.279L137.821 58.463L298.861 0L249.749 41.8943L-0.424957 186.683L-248.371 196.162L-38.1329 129.141Z" fill="#BF81FF"/>
<path fill-rule="evenodd" clip-rule="evenodd" d="M-248.371 196.162L-242.072 220.144L88.0622 234.126L-209.057 203.327L-248.371 196.162Z" fill="#57198A"/>
<path fill-rule="evenodd" clip-rule="evenodd" d="M835 310.152L355.478 296.967L349.814 288.484L246.973 263.034L229.781 277.736L164.424 253.928L129.343 234.747L165.831 230.966L186.919 140.834L194.6 147.426L201.373 140.834L209.701 96.5261L221.03 120.085L247.446 119.165L264.9 51.2733H273.863L298.861 0L135.642 65.6775L128.086 63.1649L94.1249 70.7029V94.5856L86.4191 98.367L-248.371 196.162L-232.324 205.193L-129.172 215.268L88.0623 234.126L-268.177 219.025L-658.763 223.751L-659 443H835V310.152Z" fill="#BF81FF"/>
<g opacity="0.5" filter="url(#filter0_d_182_787)">
<path fill-rule="evenodd" clip-rule="evenodd" d="M298.86 0L260.767 36.2719L228.636 66.8468L218.017 76.9472L189.471 109.239L104.283 88.4408L135.642 65.6775L298.86 0Z" fill="url(#paint0_linear_182_787)"/>
</g>
<path fill-rule="evenodd" clip-rule="evenodd" d="M129.343 234.747L95.4321 231.513L161.549 228.603L183.147 136.629L218.017 76.9472L298.861 0L273.863 51.2733H264.9L247.446 119.165L221.03 120.085L209.701 96.5261L203.427 139.366L194.601 147.426L186.92 140.834L173.45 257.212L164.424 253.928L129.343 234.747Z" fill="url(#paint1_linear_182_787)"/>
<path fill-rule="evenodd" clip-rule="evenodd" d="M96.9882 230.095L81.0909 227.856L75.2399 232.782L96.9882 230.095Z" fill="#57198A"/>
<path fill-rule="evenodd" clip-rule="evenodd" d="M97.4363 72.0958L104.283 88.4405L121.824 91.4259L189.472 109.238L182.438 110.035L107.42 96.501L94.1249 94.5854V70.7026L97.4363 72.0958Z" fill="#57198A"/>
<path fill-rule="evenodd" clip-rule="evenodd" d="M218.017 76.9471L215.216 72.0959L156.345 76.8973L228.636 66.8467L218.017 76.9471Z" fill="#57198A"/>
<path fill-rule="evenodd" clip-rule="evenodd" d="M234.387 25.4004L256.048 40.75L260.767 36.272H255.463L234.387 25.4004Z" fill="#3B1163"/>
<path opacity="0.5" fill-rule="evenodd" clip-rule="evenodd" d="M94.1249 70.703L100.051 76.9474L128.086 63.165L94.1249 70.703Z" fill="#542E74"/>
<path fill-rule="evenodd" clip-rule="evenodd" d="M-39.2783 115.607L87.9003 95.7798L6.21016 97.6208L-39.2783 115.607Z" fill="#4F1F74"/>
<path fill-rule="evenodd" clip-rule="evenodd" d="M-39.2783 115.607L-37.2989 134.49L77.6548 101.302L94.1247 94.5854L-39.2783 115.607Z" fill="url(#paint2_linear_182_787)"/>
<g style="mix-blend-mode:multiply" opacity="0.3">
<path fill-rule="evenodd" clip-rule="evenodd" d="M19.0328 118.568L17.9373 106.602L58.7948 100.158L57.8735 106.85L19.0328 118.568Z" fill="#57198A"/>
</g>
<g style="mix-blend-mode:multiply" opacity="0.3">
<path fill-rule="evenodd" clip-rule="evenodd" d="M63.9611 105.258L64.5462 99.2624L78.7131 97.0234L77.6549 101.302L63.9611 105.258Z" fill="#57198A"/>
</g>
<path fill-rule="evenodd" clip-rule="evenodd" d="M-37.2988 134.49L-21.4887 156.308L60.2637 162.278L65.9902 173.473L170.138 192.057L171.147 187.753L71.2437 173.473L66.0524 171.807L59.5043 160.512L-17.3431 154.84L-22.6962 152.949L-37.2988 134.49Z" fill="#541163"/>
<g style="mix-blend-mode:multiply" opacity="0.5">
<path fill-rule="evenodd" clip-rule="evenodd" d="M161.549 228.603L165.458 254.301L129.343 234.747L129.293 230.021L161.549 228.603Z" fill="#57198A"/>
</g>
<g style="mix-blend-mode:multiply" opacity="0.5">
<path fill-rule="evenodd" clip-rule="evenodd" d="M228.636 66.8467L228.736 75.4295L212.166 86.948L218.017 76.9471L215.216 72.0959L228.636 66.8467Z" fill="#57198A"/>
</g>
<g style="mix-blend-mode:multiply" opacity="0.5">
<path fill-rule="evenodd" clip-rule="evenodd" d="M256.049 40.7501L255.663 59.1597H258.613L260.767 36.2721H255.463L251.903 34.4312L252.401 38.1628L256.049 40.7501Z" fill="#57198A"/>
</g>
<g style="mix-blend-mode:multiply" opacity="0.5">
<path fill-rule="evenodd" clip-rule="evenodd" d="M264.9 51.2735L261.514 41.8945L273.863 51.2735H264.9Z" fill="#57198A"/>
</g>
<path fill-rule="evenodd" clip-rule="evenodd" d="M185.164 137.201L212.166 86.948L253.098 58.4629L295.263 70.056L282.104 87.371L234.761 113.12L185.164 137.201Z" fill="#57198A"/>
<path fill-rule="evenodd" clip-rule="evenodd" d="M295.263 70.0562L284.644 111.179L262.497 174.941L254.057 176.434L252.351 131.703L229.868 223.229L208.842 255.521L192.422 241.888L185.164 137.201L282.104 87.3711L295.263 70.0562Z" fill="url(#paint3_linear_182_787)"/>
<g style="mix-blend-mode:multiply" opacity="0.3">
<path fill-rule="evenodd" clip-rule="evenodd" d="M185.164 137.201L226.096 117.846L229.868 223.229L208.842 255.52L199.256 173.647L204.149 237.583L206.141 253.281L192.422 241.887L185.164 137.201Z" fill="#57198A"/>
</g>
<g style="mix-blend-mode:multiply" opacity="0.3">
<path fill-rule="evenodd" clip-rule="evenodd" d="M252.351 131.704L251.903 101.825L280.336 88.4409L278.133 120.931L262.497 174.941L254.057 176.434L252.351 131.704Z" fill="#57198A"/>
</g>
<path fill-rule="evenodd" clip-rule="evenodd" d="M263.767 138.495L276.676 121.528L305.508 122.474L284.644 137.002L263.767 138.495Z" fill="#4F1F81"/>
<path fill-rule="evenodd" clip-rule="evenodd" d="M263.767 138.495L265.908 175.314L279.428 193.923L286.586 189.196L295.163 143.247L302.595 132.972L305.508 122.474L263.767 138.495Z" fill="url(#paint4_linear_182_787)"/>
<g style="mix-blend-mode:multiply" opacity="0.3">
<path fill-rule="evenodd" clip-rule="evenodd" d="M263.767 138.495L285.876 130.012L284.644 190.465L283.922 152.103L279.428 193.923L265.908 175.314L263.767 138.495Z" fill="#57198A"/>
</g>
<g style="mix-blend-mode:multiply" opacity="0.3">
<path fill-rule="evenodd" clip-rule="evenodd" d="M295.163 143.247L289.835 141.63L302.595 132.972L295.163 143.247Z" fill="#57198A"/>
</g>
<path fill-rule="evenodd" clip-rule="evenodd" d="M251.741 102.97L217.843 88.4409L255.053 101.228L251.741 102.97Z" fill="#57198A"/>
<path fill-rule="evenodd" clip-rule="evenodd" d="M208.842 255.52L228.636 190.44L243.288 168.572L229.868 223.229L208.842 255.52Z" fill="#BF81FF"/>
<path fill-rule="evenodd" clip-rule="evenodd" d="M295.163 143.247L289.835 141.63L302.595 132.972L295.163 143.247Z" fill="#BF81FF"/>
<path fill-rule="evenodd" clip-rule="evenodd" d="M262.497 174.941L254.057 176.434L264.8 161.308L265.124 167.403L262.497 174.941Z" fill="#BF81FF"/>
<path fill-rule="evenodd" clip-rule="evenodd" d="M279.428 193.923L283.922 152.103L284.644 190.465L285.416 152.103L292.138 143.247H295.163L286.586 189.196L279.428 193.923Z" fill="#BF81FF"/>
<path fill-rule="evenodd" clip-rule="evenodd" d="M213.66 233.454L222.673 202.979L217.307 210.517L213.66 233.454Z" fill="#BF81FF"/>
<g style="mix-blend-mode:multiply" opacity="0.3">
<path fill-rule="evenodd" clip-rule="evenodd" d="M135.754 101.626L139.066 95.979L189.471 109.239L182.438 110.035L135.754 101.626Z" fill="#57198A"/>
</g>
<g style="mix-blend-mode:multiply" opacity="0.3">
<path fill-rule="evenodd" clip-rule="evenodd" d="M134.086 101.328L135.754 95.1082L129.393 93.4165V100.457L134.086 101.328Z" fill="#57198A"/>
</g>
<path fill-rule="evenodd" clip-rule="evenodd" d="M118.288 230.319L167.574 202.979L161.548 228.603L118.288 230.319Z" fill="#7C1DD3"/>
<path fill-rule="evenodd" clip-rule="evenodd" d="M113.147 230.319L126.069 220.916L110.433 215.94L99.3286 230.319H113.147Z" fill="#7C1DD3"/>
<path fill-rule="evenodd" clip-rule="evenodd" d="M151.701 161.606L155.946 152.725L162.793 154.84L156.656 166.383L151.701 161.606Z" fill="#7C1DD3"/>
<path fill-rule="evenodd" clip-rule="evenodd" d="M75.7876 162.8L74.8042 153.347L80.3688 147.575L77.9289 164.89L75.7876 162.8Z" fill="#7C1DD3"/>
<path fill-rule="evenodd" clip-rule="evenodd" d="M74.8041 149.068L74.082 146.605L75.7875 144.714V147.575L74.8041 149.068Z" fill="#7C1DD3"/>
<path fill-rule="evenodd" clip-rule="evenodd" d="M93.0294 165.338L95.4321 161.606L101.358 163.273L94.8968 169.692L93.0294 165.338Z" fill="#7C1DD3"/>
<path fill-rule="evenodd" clip-rule="evenodd" d="M42.0881 137.202L40.3453 134.241L42.9471 129.141L43.6194 131.704L42.0881 137.202Z" fill="#7C1DD3"/>
<path fill-rule="evenodd" clip-rule="evenodd" d="M172.728 91.4262L176.96 90.7545L179.313 90.3813L176.014 95.7052L172.018 94.5857L172.728 91.4262Z" fill="#7C1DD3"/>
<path fill-rule="evenodd" clip-rule="evenodd" d="M150.257 229.05L162.793 221.512V236.165L150.257 229.05Z" fill="#6A1DAC"/>
<path fill-rule="evenodd" clip-rule="evenodd" d="M-82.4636 219.099L-56.4328 208.352L27.2616 227.807L-82.4636 219.099Z" fill="#912EEF"/>
<path fill-rule="evenodd" clip-rule="evenodd" d="M147.382 277.736L28.7928 269.8L-89.0491 230.667L131.933 236.165L164.424 253.928L147.382 277.736Z" fill="#912EEF"/>
<ellipse cx="364.713" cy="126" rx="1.50251" ry="3" fill="#D9D9D9"/>
</g>
<defs>
<filter id="filter0_d_182_787" x="72.2832" y="-32" width="258.577" height="173.239" filterUnits="userSpaceOnUse" color-interpolation-filters="sRGB">
<feFlood flood-opacity="0" result="BackgroundImageFix"/>
<feColorMatrix in="SourceAlpha" type="matrix" values="0 0 0 0 0 0 0 0 0 0 0 0 0 0 0 0 0 0 127 0" result="hardAlpha"/>
<feOffset/>
<feGaussianBlur stdDeviation="16"/>
<feComposite in2="hardAlpha" operator="out"/>
<feColorMatrix type="matrix" values="0 0 0 0 1 0 0 0 0 1 0 0 0 0 1 0 0 0 1 0"/>
<feBlend mode="normal" in2="BackgroundImageFix" result="effect1_dropShadow_182_787"/>
<feBlend mode="normal" in="SourceGraphic" in2="effect1_dropShadow_182_787" result="shape"/>
</filter>
<linearGradient id="paint0_linear_182_787" x1="259.287" y1="18" x2="178.63" y2="27.6742" gradientUnits="userSpaceOnUse">
<stop stop-color="#653897"/>
<stop offset="1" stop-color="#DAB8FF"/>
</linearGradient>
<linearGradient id="paint1_linear_182_787" x1="95.4321" y1="128.594" x2="298.861" y2="128.594" gradientUnits="userSpaceOnUse">
<stop stop-color="#450C36"/>
<stop offset="1" stop-color="#361867"/>
</linearGradient>
<linearGradient id="paint2_linear_182_787" x1="27.4232" y1="134.49" x2="27.4232" y2="94.5854" gradientUnits="userSpaceOnUse">
<stop stop-color="#450C36"/>
<stop offset="1" stop-color="#361867"/>
</linearGradient>
<linearGradient id="paint3_linear_182_787" x1="240.213" y1="255.521" x2="240.213" y2="70.0562" gradientUnits="userSpaceOnUse">
<stop stop-color="#450C36"/>
<stop offset="1" stop-color="#361867"/>
</linearGradient>
<linearGradient id="paint4_linear_182_787" x1="284.644" y1="193.923" x2="284.644" y2="122.474" gradientUnits="userSpaceOnUse">
<stop stop-color="#450C36"/>
<stop offset="1" stop-color="#361867"/>
</linearGradient>
<clipPath id="clip0_182_787">
<rect width="1494" height="443" fill="white" transform="translate(-659)"/>
</clipPath>
</defs>
</svg>
