<svg width="396" height="47" viewBox="0 0 396 47" fill="none" xmlns="http://www.w3.org/2000/svg">
<path d="M30.872 36.848V46H20.504C12.952 46 9.176 42.48 9.176 35.44V21.488H0.6V12.848H9.176V0.559998H19.608V12.848H30.872V21.488H19.608V31.792C19.608 33.6693 19.9707 34.992 20.696 35.76C21.4213 36.4853 22.7227 36.848 24.6 36.848H30.872ZM53.919 12.016C59.167 12.016 63.4977 13.6373 66.911 16.88C70.367 20.1227 72.095 24.304 72.095 29.424C72.095 34.5867 70.3457 38.7893 66.847 42.032C63.3483 45.232 59.039 46.832 53.919 46.832C48.7137 46.832 44.383 45.2107 40.927 41.968C37.471 38.7253 35.743 34.544 35.743 29.424C35.743 24.2613 37.4923 20.08 40.991 16.88C44.4897 13.6373 48.799 12.016 53.919 12.016ZM53.919 37.808C55.6257 37.808 57.0977 37.36 58.335 36.464C59.615 35.568 60.5537 34.3307 61.151 32.752C61.4923 31.6427 61.663 30.5333 61.663 29.424C61.663 28.3147 61.4923 27.2053 61.151 26.096C59.871 22.7253 57.4603 21.04 53.919 21.04C51.5723 21.04 49.6737 21.8507 48.223 23.472C46.815 25.0933 46.111 27.0773 46.111 29.424C46.111 31.7707 46.8363 33.7547 48.287 35.376C49.7377 36.9973 51.615 37.808 53.919 37.808ZM95.7315 46V0.559998H114.548C122.1 0.559998 128.137 2.544 132.66 6.512C137.182 10.4373 139.444 16.0267 139.444 23.28C139.444 30.576 137.118 36.1867 132.468 40.112C127.817 44.0373 121.844 46 114.548 46H95.7315ZM114.356 9.904H106.612V36.656H114.356C118.622 36.656 122.014 35.4613 124.532 33.072C127.092 30.6827 128.372 27.4187 128.372 23.28C128.372 18.928 127.113 15.6213 124.596 13.36C122.078 11.056 118.665 9.904 114.356 9.904ZM147.974 46V0.559998H185.99V9.52H158.854V17.712H175.046V26.864H158.854V36.592H188.486V46H147.974ZM230.142 46L217.086 30.576L203.902 46H191.166L210.75 23.024L191.742 0.559998H205.822L217.662 14.832L229.822 0.559998H242.814L224.062 22.448L243.646 46H230.142ZM284.53 46L281.138 38.128H259.506L256.114 46H245.17L265.074 0.495998H276.21L296.05 46H284.53ZM263.41 29.04H277.234L270.322 12.976L263.41 29.04ZM302.327 46V0.559998H328.951C333.9 0.559998 337.825 1.73333 340.727 4.08C343.671 6.42666 345.143 10.0107 345.143 14.832C345.143 17.904 344.417 20.528 342.967 22.704C341.516 24.88 339.361 26.48 336.503 27.504L346.743 46H335.287L325.687 28.72H313.207V46H302.327ZM327.799 9.904H313.207V19.568H327.799C331.937 19.568 334.007 17.9893 334.007 14.832C334.007 12.9973 333.452 11.7173 332.343 10.992C331.276 10.2667 329.761 9.904 327.799 9.904ZM350.555 10.032V0.559998H395.803V10.032H378.587V46H367.771V10.032H350.555Z" fill="url(#paint0_linear_120_1457)"/>
<defs>
<linearGradient id="paint0_linear_120_1457" x1="6.5" y1="31" x2="390.5" y2="30.5" gradientUnits="userSpaceOnUse">
<stop stop-color="#BF81FF"/>
<stop offset="0.515625" stop-color="#D17558"/>
<stop offset="1" stop-color="#F84FE7"/>
</linearGradient>
</defs>
</svg>
